<svg xmlns="http://www.w3.org/2000/svg" xmlns:xlink="http://www.w3.org/1999/xlink" width="1024" height="1024" viewBox="0 0 768 768" version="1.2"><defs><symbol overflow="visible" id="a"><path d="M40.016-115.734v-411.157c0-37.914 9.804-66.68 29.422-86.297 19.613-19.625 48.382-29.437 86.312-29.437h106.313c37.406 0 66.046 9.875 85.921 29.625s29.813 48.453 29.813 86.11v83.577c0 8.368-4.313 12.547-12.938 12.547h-80.421c-8.637 0-12.954-4.18-12.954-12.546v-61.204c0-21.445-10.726-32.171-32.171-32.171H181.64c-21.45 0-32.172 10.726-32.172 32.171v366.422c0 21.45 10.722 32.172 32.172 32.172h57.672c21.445 0 32.171-10.723 32.171-32.172v-107.89h-41.578c-8.636 0-12.953-4.18-12.953-12.547v-80.438c0-8.625 4.317-12.937 12.953-12.937H364.86c8.625 0 12.938 4.312 12.938 12.937v223.235c0 37.668-9.938 66.375-29.813 86.125C328.11-9.867 299.47 0 262.063 0H155.75c-37.93 0-66.7-9.805-86.313-29.422-19.617-19.613-29.421-48.383-29.421-86.312zm0 0"/></symbol><symbol overflow="visible" id="b"><path d="M40.016-12.953v-617.11c0-8.375 4.316-12.562 12.953-12.562h201.64c37.926 0 66.696 9.813 86.313 29.438 19.613 19.617 29.422 48.382 29.422 86.296v195.782c0 53.875-19.485 89.312-58.453 106.312l55.312 210.281C369.555-4.836 365.766 0 355.828 0h-83.562c-7.586 0-12.164-3.79-13.735-11.375l-53.734-204.016h-55.328v202.438c0 3.93-1.18 7.07-3.531 9.422C143.582-1.176 140.445 0 136.53 0H52.97c-3.93 0-7.07-1.176-9.422-3.531-2.356-2.352-3.531-5.492-3.531-9.422zm109.453-308.36h79.64c21.446 0 32.172-10.722 32.172-32.171v-151.032c0-21.445-10.726-32.171-32.172-32.171h-79.64zm0 0"/></symbol></defs><g fill="#0ba6ff"><use xlink:href="#a" x="-29.896" y="701.527"/><use xlink:href="#b" x="387.531" y="701.527"/></g></svg>